<svg id="no-car" enable-background="new 0 0 300 300" height="75" viewBox="0 0 300 300" width="75" xmlns="http://www.w3.org/2000/svg"><g><circle cx="136.288" cy="145.24" fill="#efefd2" r="90"/><g><path d="m67.486 239.972c10.616 3.05 21.695-3.084 24.744-13.701.807-2.808.933-5.639.541-8.355.54.247 1.079.497 1.667.666 6.37 1.83 13.017-1.851 14.847-8.221s-1.851-13.017-8.221-14.847c-1.985-.57-4.892-.69-6.777-.274 1.642-1.908 3.849-4.019 4.589-6.597 2.745-9.555-2.776-19.525-12.331-22.27-8.933-2.566-18.15 2.143-21.565 10.567-.679-.258-1.364-.507-2.075-.711-13.801-3.964-28.203 4.01-32.168 17.811s4.01 28.203 17.811 32.168c1.844.53 3.697.831 5.535.949h12.203" fill="#fff"/><path d="m73.042 244.76c-2.227 0-4.461-.311-6.66-.943-2.121-.609-3.348-2.824-2.738-4.947.609-2.123 2.797-3.371 4.949-2.74 4.109 1.182 8.426.691 12.164-1.383 3.742-2.07 6.449-5.471 7.629-9.578.613-2.137.758-4.385.426-6.682-.207-1.449.391-2.895 1.562-3.771 1.172-.879 2.723-1.047 4.059-.438.402.184.742.354 1.113.461 2.055.59 4.211.344 6.082-.691 1.867-1.035 3.223-2.736 3.812-4.789.59-2.055.344-4.215-.688-6.084-1.035-1.871-2.738-3.225-4.789-3.812-1.34-.387-3.59-.49-4.816-.215-1.66.367-3.406-.375-4.293-1.854-.883-1.479-.723-3.355.402-4.66l.922-1.049c1.227-1.369 2.492-2.785 2.855-4.049 2.129-7.416-2.176-15.186-9.594-17.318-6.836-1.957-14.051 1.568-16.754 8.229-.816 2.018-3.105 3.014-5.133 2.232-.57-.217-1.148-.43-1.746-.602-5.664-1.625-11.598-.947-16.738 1.896-5.141 2.848-8.863 7.525-10.488 13.172-1.621 5.648-.949 11.59 1.898 16.73 2.848 5.143 7.527 8.867 13.176 10.49 1.488.426 3.062.695 4.688.801l11.945-.008c2.211 0 4 1.791 4 4s-1.789 4-4 4h-12.202c-2.453-.15-4.602-.52-6.641-1.105-7.699-2.211-14.082-7.291-17.961-14.301-3.883-7.012-4.805-15.113-2.59-22.814 2.211-7.703 7.293-14.082 14.301-17.963 6.699-3.709 14.395-4.707 21.766-2.871 5.094-8.262 15.113-12.336 24.691-9.574 11.656 3.35 18.418 15.559 15.07 27.217-.188.66-.434 1.283-.723 1.877.059.016.113.031.172.049 4.105 1.178 7.508 3.887 9.578 7.627 2.07 3.738 2.562 8.061 1.379 12.168-1.18 4.105-3.887 7.508-7.625 9.578-2.672 1.48-5.637 2.148-8.613 1.986-.133 1.473-.406 2.924-.816 4.348-1.766 6.156-5.832 11.26-11.441 14.367-3.606 1.997-7.579 3.013-11.59 3.013z" fill="#4c241d"/></g><g fill="#4c241d"><path d="m126.288 211.24h-16c-2.211 0-4-1.791-4-4s1.789-4 4-4h16c2.211 0 4 1.791 4 4s-1.789 4-4 4z"/><path d="m82.288 199.24h-16c-2.211 0-4-1.791-4-4s1.789-4 4-4h16c2.211 0 4 1.791 4 4s-1.789 4-4 4z"/><circle cx="252.288" cy="69.24" r="6"/><path d="m206.288 115.24c-1.023 0-2.047-.391-2.828-1.172-1.562-1.562-1.562-4.094 0-5.656l16-16c1.562-1.562 4.094-1.562 5.656 0s1.562 4.094 0 5.656l-16 16c-.781.782-1.805 1.172-2.828 1.172z"/><path d="m222.288 115.24c-1.023 0-2.047-.391-2.828-1.172l-16-16c-1.562-1.562-1.562-4.094 0-5.656s4.094-1.562 5.656 0l16 16c1.562 1.562 1.562 4.094 0 5.656-.781.782-1.805 1.172-2.828 1.172z"/></g><g><path d="m270.288 135.24h-59.946c-5.047 0-9.777 2.463-12.672 6.598l-19.123 27.317c-2.669 3.813-7.031 6.084-11.686 6.084h-11.042c-7.473 0-13.531 6.058-13.531 13.531v26.469l40 8h88z" fill="#ffce56"/><path d="m270.288 227.24h-88c-.262 0-.527-.025-.785-.078l-40-8c-1.867-.373-3.215-2.016-3.215-3.922v-26.469c0-9.666 7.863-17.531 17.531-17.531h11.043c3.344 0 6.488-1.637 8.406-4.377l19.125-27.32c3.641-5.199 9.602-8.303 15.949-8.303h59.945c2.211 0 4 1.791 4 4v88c.001 2.209-1.788 4-3.999 4zm-87.606-8h83.605v-80h-55.945c-3.738 0-7.25 1.828-9.395 4.891l-19.125 27.32c-3.414 4.877-9.008 7.789-14.961 7.789h-11.043c-5.254 0-9.531 4.275-9.531 9.531v23.189z" fill="#4c241d"/></g><g><path d="m174.288 227.24h-32c-4.418 0-8-3.582-8-8 0-4.418 3.582-8 8-8h32z" fill="#fc8c29"/><path d="m174.288 231.24h-32c-6.617 0-12-5.383-12-12s5.383-12 12-12h32c2.211 0 4 1.791 4 4v16c0 2.209-1.789 4-4 4zm-32-16c-2.207 0-4 1.795-4 4s1.793 4 4 4h28v-8z" fill="#4c241d"/></g><path d="m258.288 195.24h-4c-2.211 0-4-1.791-4-4s1.789-4 4-4h4c2.211 0 4 1.791 4 4s-1.789 4-4 4z" fill="#4c241d"/><path d="m242.288 227.24c-2.211 0-4-1.791-4-4v-68c0-2.209 1.789-4 4-4s4 1.791 4 4v68c0 2.209-1.789 4-4 4z" fill="#4c241d"/><g><circle cx="176.288" cy="225.24" fill="#6b4f5b" r="15.294"/><path d="m176.288 244.533c-10.637 0-19.293-8.654-19.293-19.293s8.656-19.293 19.293-19.293 19.293 8.654 19.293 19.293-8.657 19.293-19.293 19.293zm0-30.586c-6.227 0-11.293 5.066-11.293 11.293s5.066 11.293 11.293 11.293 11.293-5.066 11.293-11.293-5.067-11.293-11.293-11.293z" fill="#4c241d"/></g><circle cx="176.288" cy="225.24" fill="#4c241d" r="4.044"/><g><path d="m270.288 155.427c-.561-.079-1.117-.187-1.691-.187h-51.806c-4.062 0-7.856 2.03-10.11 5.411l-12.393 18.589h76z" fill="#9dc1e4"/><path d="m270.288 183.24h-76.012c-2.207 0-3.992-1.791-3.992-4 0-.9.297-1.732.797-2.402l12.27-18.406c3.008-4.504 8.035-7.191 13.441-7.191h51.805c.66 0 1.305.084 1.949.182 1.953.299 3.742 2.029 3.742 4.006v23.812c0 2.208-1.789 3.999-4 3.999zm-68.528-8h64.527v-16h-49.496c-2.73 0-5.266 1.357-6.789 3.633z" fill="#4c241d"/></g><path d="m126.288 211.24h-16c-2.211 0-4-1.791-4-4s1.789-4 4-4h16c2.211 0 4 1.791 4 4s-1.789 4-4 4z" fill="#4c241d"/><path d="m128.288 139.24c-20.953 0-38-17.047-38-38s17.047-38 38-38 38 17.047 38 38-17.047 38-38 38zm0-68c-16.543 0-30 13.457-30 30s13.457 30 30 30 30-13.457 30-30-13.457-30-30-30z" fill="#f53e28"/><g fill="#f53e28"><path d="m106.288 79.24 44 44"/><path d="m150.288 127.24c-1.023 0-2.047-.391-2.828-1.172l-44-44c-1.562-1.562-1.562-4.094 0-5.656s4.094-1.562 5.656 0l44 44c1.562 1.562 1.562 4.094 0 5.656-.781.782-1.805 1.172-2.828 1.172z"/></g></g></svg>