<svg id="Layer_1" enable-background="new 0 0 512 512" height="75" viewBox="0 0 512 512" width="75" xmlns="http://www.w3.org/2000/svg"><g><ellipse cx="62.423" cy="142" fill="#97da7b" rx="54.923" ry="82"/><path d="m62.423 60c-5.203 0-10.23 1.103-15 3.122 23.039 9.748 39.923 41.358 39.923 78.878s-16.885 69.13-39.923 78.878c4.77 2.018 9.797 3.122 15 3.122 30.333 0 54.923-36.713 54.923-82s-24.59-82-54.923-82z" fill="#80d261"/><path d="m487.462 378h-378.195v-68.972c0-14.793 10.403-27.546 24.895-30.518l7.365-1.51h255.98l69.667 11.706c11.555 1.305 20.287 11.079 20.287 22.707v66.587z" fill="#ffde5c"/><path d="m238.454 277h29v101h-29z" fill="#ffc736"/><path d="m467.174 288.706-69.667-11.706h-30l69.667 11.706c11.555 1.305 20.287 11.079 20.287 22.707v66.587h30v-66.587c.001-11.628-8.732-21.403-20.287-22.707z" fill="#ffc736"/><path d="m489.5 408h-379.964c-8.284 0-15-6.716-15-15 0-8.284 6.716-15 15-15h379.964c8.284 0 15 6.716 15 15 0 8.284-6.716 15-15 15z" fill="#d2d5d4"/><path d="m489.5 378h-30c8.284 0 15 6.716 15 15 0 8.284-6.716 15-15 15h30c8.284 0 15-6.716 15-15 0-8.284-6.716-15-15-15z" fill="#c7c9c8"/><path d="m397.507 277h-255.98l28.769-88h197.927z" fill="#b9f5ff"/><path d="m368.223 189h-30l29.284 88h30z" fill="#8aeeff"/><circle cx="404" cy="407" fill="#497285" r="45"/><circle cx="404" cy="407" fill="#d2d5d4" r="16"/><circle cx="187.698" cy="407" fill="#497285" r="45"/><path d="m368.261 189h-198.619c-2.315 0-4.192-1.877-4.192-4.192v-4.692c0-10.557 8.558-19.115 19.115-19.115h168.773c10.557 0 19.115 8.558 19.115 19.115v4.692c.001 2.315-1.876 4.192-4.192 4.192z" fill="#ffde5c"/><path d="m353.338 161h-30c10.557 0 19.115 8.558 19.115 19.115v4.692c0 2.315-1.877 4.192-4.192 4.192h30c2.315 0 4.192-1.877 4.192-4.192v-4.692c.001-10.557-8.557-19.115-19.115-19.115z" fill="#ffc736"/><circle cx="187.698" cy="407" fill="#d2d5d4" r="16"/><path d="m487.462 355.41h-31.744c-11.046 0-20-8.954-20-20 0-11.046 8.954-20 20-20h31.744z" fill="#b9f5ff"/><path d="m457.462 315.41h30v40h-30z" fill="#8aeeff"/><path d="m251.992 189h30v88h-30z" fill="#ffde5c"/><g><path d="m494.96 371.173v-15.734c0-.01.001-.019.001-.029v-40c0-.01-.001-.019-.001-.029v-3.971c0-15.39-11.477-28.304-26.734-30.128l-65.027-10.931-25.973-78.05c1.7-2.031 2.728-4.643 2.728-7.493v-4.692c0-14.676-11.939-26.615-26.615-26.615h-24.8c-4.142 0-7.5 3.357-7.5 7.5s3.358 7.5 7.5 7.5h24.8c6.405 0 11.615 5.211 11.615 11.615v1.385h-192.004v-1.385c0-6.404 5.21-11.615 11.615-11.615h108.435c4.142 0 7.5-3.357 7.5-7.5s-3.358-7.5-7.5-7.5h-108.435c-14.676 0-26.615 11.939-26.615 26.615v4.692c0 3.104 1.224 5.922 3.205 8.018l-25.403 77.702-3.098.635c-17.895 3.668-30.884 19.594-30.884 37.867v41.854h-18.289c-7.476 0-13.558-6.082-13.558-13.558v-106.453c14.356-2.398 27.49-11.67 37.568-26.717 11.191-16.709 17.355-38.783 17.355-62.156s-6.164-45.447-17.355-62.156c-11.81-17.633-27.816-27.344-45.068-27.344-13.05 0-25.51 5.61-36.034 16.224-2.917 2.94-2.896 7.689.045 10.606 2.941 2.916 7.69 2.897 10.606-.046 7.645-7.709 16.422-11.784 25.383-11.784 12.089 0 23.668 7.349 32.605 20.691 9.555 14.266 14.818 33.376 14.818 53.809s-5.263 39.543-14.818 53.809c-7.067 10.551-15.789 17.335-25.105 19.72v-29.027l23.62-18.056c3.291-2.516 3.919-7.223 1.403-10.513-2.517-3.292-7.222-3.92-10.514-1.403l-14.509 11.092v-23.209l23.62-18.056c3.291-2.516 3.919-7.223 1.403-10.513-2.517-3.292-7.222-3.921-10.514-1.403l-14.509 11.092v-17.033c0-4.143-3.358-7.5-7.5-7.5s-7.5 3.357-7.5 7.5v17.031l-14.509-11.092c-3.291-2.517-7.997-1.888-10.514 1.403-2.516 3.29-1.887 7.997 1.403 10.513l23.619 18.056v23.209l-14.509-11.092c-3.291-2.517-7.997-1.889-10.514 1.403-2.516 3.29-1.887 7.997 1.403 10.513l23.619 18.056v29.027c-9.317-2.385-18.038-9.169-25.105-19.72-9.554-14.264-14.816-33.374-14.816-53.807 0-13.611 2.403-26.947 6.949-38.566 1.509-3.857-.394-8.208-4.251-9.717-3.857-1.51-8.208.395-9.717 4.252-5.222 13.343-7.981 28.568-7.981 44.031 0 23.373 6.164 45.447 17.355 62.156 10.078 15.047 23.212 24.319 37.568 26.717v106.454c0 15.747 12.811 28.558 28.558 28.558h18.289v6.013c-3.026 1.112-5.806 2.853-8.143 5.199-4.248 4.248-6.587 9.896-6.587 15.903 0 12.406 10.093 22.5 22.5 22.5h26.356c4.075 24.919 25.747 44 51.802 44s47.726-19.081 51.802-44h18.783c4.142 0 7.5-3.357 7.5-7.5s-3.358-7.5-7.5-7.5h-18.501c-.656-5.282-2.097-10.321-4.206-15h120.549c-2.11 4.679-3.551 9.718-4.206 15h-58.763c-4.142 0-7.5 3.357-7.5 7.5s3.358 7.5 7.5 7.5h59.044c4.075 24.919 25.747 44 51.802 44s47.726-19.081 51.802-44h33.696c6.018 0 11.67-2.347 15.894-6.588 4.26-4.244 6.606-9.896 6.606-15.912 0-10.523-7.264-19.38-17.04-21.827zm-15-23.263h-24.242c-6.893 0-12.5-5.607-12.5-12.5s5.607-12.5 12.5-12.5h24.242zm-92.853-78.41h-97.615v-73h73.322zm-112.615-73v73h-15v-73zm-98.757 0h68.757v73h-92.622zm-73.695 196.5c0-2.001.779-3.882 2.204-5.307 1.409-1.414 3.29-2.193 5.296-2.193h30.281c-2.11 4.679-3.551 9.718-4.206 15h-26.075c-4.136 0-7.5-3.364-7.5-7.5zm85.658 51.5c-20.678 0-37.5-16.822-37.5-37.5s16.822-37.5 37.5-37.5 37.5 16.822 37.5 37.5-16.823 37.5-37.5 37.5zm0-90c-14.775 0-28.134 6.144-37.683 16h-33.245v-61.47c0-11.183 7.947-20.929 18.896-23.173l6.625-1.357h117.664v86h-34.573c-9.55-9.856-22.91-16-37.684-16zm87.256 16v-86h121.93l69.043 11.606c.134.022.27.041.405.057 6.573.739 11.763 5.55 13.21 11.747h-23.825c-15.164 0-27.5 12.337-27.5 27.5s12.336 27.5 27.5 27.5h24.242v7.59h-38.277c-9.549-9.856-22.909-16-37.683-16s-28.134 6.144-37.683 16zm129.046 74c-20.678 0-37.5-16.822-37.5-37.5s16.822-37.5 37.5-37.5 37.5 16.822 37.5 37.5-16.822 37.5-37.5 37.5zm90.786-46.193c-1.409 1.414-3.286 2.193-5.286 2.193h-33.417c-.656-5.282-2.097-10.321-4.207-15h37.624c4.136 0 7.5 3.364 7.5 7.5 0 2-.779 3.877-2.214 5.307z"/><path d="m404 383.5c-12.958 0-23.5 10.542-23.5 23.5s10.542 23.5 23.5 23.5 23.5-10.542 23.5-23.5-10.542-23.5-23.5-23.5zm0 32c-4.687 0-8.5-3.813-8.5-8.5s3.813-8.5 8.5-8.5 8.5 3.813 8.5 8.5-3.813 8.5-8.5 8.5z"/><path d="m187.698 383.5c-12.958 0-23.5 10.542-23.5 23.5s10.542 23.5 23.5 23.5 23.5-10.542 23.5-23.5-10.542-23.5-23.5-23.5zm0 32c-4.687 0-8.5-3.813-8.5-8.5s3.813-8.5 8.5-8.5 8.5 3.813 8.5 8.5-3.813 8.5-8.5 8.5z"/><path d="m333.146 303.808h-14.769c-4.142 0-7.5 3.357-7.5 7.5s3.358 7.5 7.5 7.5h14.769c4.142 0 7.5-3.357 7.5-7.5s-3.358-7.5-7.5-7.5z"/><path d="m230.326 303.808h-14.769c-4.142 0-7.5 3.357-7.5 7.5s3.358 7.5 7.5 7.5h14.769c4.142 0 7.5-3.357 7.5-7.5s-3.358-7.5-7.5-7.5z"/></g></g></svg>