<svg id="Layer_1" enable-background="new 0 0 512 512" height="75" viewBox="0 0 512 512" width="75" xmlns="http://www.w3.org/2000/svg"><g><path d="m186 7.5h140v52h-140z" fill="#e19974"/><path d="m296 7.5h30v52h-30z" fill="#dc8758"/><path d="m387 266.4v184.85c0 29.409-23.841 53.25-53.25 53.25h-155.5c-29.409 0-53.25-23.841-53.25-53.25v-184.85c0-24.197 9.103-47.509 25.5-65.303 16.397-17.794 25.5-41.106 25.5-65.303v-46.294h160v46.293c0 24.197 9.103 47.509 25.5 65.303 16.397 17.795 25.5 41.106 25.5 65.304z" fill="#eaf9fa"/><path d="m361.5 201.096c-16.397-17.794-25.5-41.106-25.5-65.304v-46.292h-30v46.293c0 24.197 9.103 47.509 25.5 65.303 16.397 17.794 25.5 41.106 25.5 65.303v184.85c0 29.409-23.841 53.25-53.25 53.25h30c29.409 0 53.25-23.841 53.25-53.25v-184.849c0-24.198-9.103-47.509-25.5-65.304z" fill="#d4f2f6"/><path d="m338 89.5h-164c-8.284 0-15-6.716-15-15 0-8.284 6.716-15 15-15h164c8.284 0 15 6.716 15 15 0 8.284-6.716 15-15 15z" fill="#d4f2f6"/><path d="m338 59.5h-30c8.284 0 15 6.716 15 15s-6.716 15-15 15h30c8.284 0 15-6.716 15-15s-6.716-15-15-15z" fill="#a6e7f0"/><ellipse cx="256" cy="308.245" fill="#97da7b" rx="54.923" ry="81.692"/><path d="m256 226.553c-5.203 0-10.23 1.099-15 3.11 23.039 9.712 39.923 41.204 39.923 78.582s-16.884 68.871-39.923 78.582c4.77 2.011 9.797 3.11 15 3.11 30.333 0 54.923-36.575 54.923-81.692s-24.59-81.692-54.923-81.692z" fill="#80d261"/><g><path d="m256 434.692c4.143 0 7.5-3.358 7.5-7.5v-30.4c14.35-2.39 27.483-11.609 37.561-26.598 11.196-16.653 17.362-38.654 17.362-61.95s-6.166-45.296-17.362-61.95c-11.812-17.568-27.813-27.243-45.061-27.243s-33.249 9.675-45.061 27.243c-11.196 16.653-17.362 38.654-17.362 61.95 0 16.833 3.256 33.206 9.417 47.351 1.654 3.798 6.073 5.535 9.871 3.881 3.797-1.654 5.535-6.073 3.881-9.871-5.344-12.27-8.169-26.572-8.169-41.36 0-20.346 5.26-39.375 14.811-53.581 8.937-13.292 20.519-20.612 32.612-20.612s23.676 7.32 32.612 20.612c9.551 14.206 14.811 33.234 14.811 53.581s-5.26 39.375-14.811 53.581c-7.067 10.511-15.792 17.269-25.112 19.645v-28.892l23.619-18.056c3.291-2.516 3.919-7.223 1.403-10.514-2.514-3.29-7.222-3.919-10.513-1.403l-14.51 11.093v-23.209l23.619-18.056c3.291-2.516 3.919-7.223 1.403-10.514-2.514-3.29-7.222-3.919-10.513-1.403l-14.51 11.092v-17.031c0-4.142-3.357-7.5-7.5-7.5s-7.5 3.358-7.5 7.5v17.031l-14.51-11.092c-3.29-2.516-7.999-1.887-10.513 1.403-2.516 3.291-1.888 7.998 1.403 10.514l23.619 18.056v23.209l-14.51-11.093c-3.29-2.516-7.999-1.887-10.513 1.403-2.516 3.291-1.888 7.998 1.403 10.514l23.619 18.056v28.898c-5.417-1.392-10.684-4.278-15.521-8.546-3.106-2.74-7.846-2.444-10.586.662s-2.444 7.845.662 10.586c7.718 6.809 16.399 11.086 25.444 12.615v30.399c.005 4.141 3.362 7.499 7.505 7.499z"/><path d="m367.016 196.014c-2.807-3.045-7.552-3.24-10.598-.433-3.047 2.807-3.24 7.552-.434 10.598 15.164 16.456 23.516 37.843 23.516 60.221v184.85c0 25.227-20.523 45.75-45.75 45.75h-155.5c-25.227 0-45.75-20.523-45.75-45.75v-184.851c0-22.378 8.352-43.765 23.516-60.221 17.724-19.234 27.484-44.231 27.484-70.386v-38.792h145v38.792c0 14.584 2.996 28.742 8.904 42.078 1.678 3.787 6.107 5.497 9.896 3.819 3.787-1.678 5.497-6.108 3.819-9.895-5.056-11.411-7.619-23.523-7.619-36.002v-39.475c9.756-2.461 17-11.308 17-21.817 0-12.407-10.094-22.5-22.5-22.5h-4.5v-44.5c0-4.142-3.357-7.5-7.5-7.5h-63.462c-4.143 0-7.5 3.358-7.5 7.5s3.357 7.5 7.5 7.5h55.962v37h-125v-37h33.038c4.143 0 7.5-3.358 7.5-7.5s-3.357-7.5-7.5-7.5h-40.538c-4.143 0-7.5 3.358-7.5 7.5v44.5h-4.5c-12.406 0-22.5 10.093-22.5 22.5 0 10.51 7.244 19.357 17 21.817v39.475c0 22.378-8.352 43.765-23.516 60.221-17.724 19.234-27.484 44.23-27.484 70.386v184.851c0 33.498 27.252 60.75 60.75 60.75h155.5c33.498 0 60.75-27.252 60.75-60.75v-184.851c0-26.155-9.761-51.151-27.484-70.385zm-193.016-129.014h164c4.136 0 7.5 3.364 7.5 7.5s-3.364 7.5-7.5 7.5h-164c-4.136 0-7.5-3.364-7.5-7.5s3.364-7.5 7.5-7.5z"/></g></g></svg>